<svg width="100%" height="100%" id="svg" viewBox="0 0 1440 590" xmlns="http://www.w3.org/2000/svg" class="transition duration-300 ease-in-out delay-150">

<defs><linearGradient id="gradient" x1="89%" y1="81%" x2="11%" y2="19%"><stop offset="5%" stop-color="#06aee9"></stop><stop offset="95%" stop-color="#8ED1FC"></stop></linearGradient></defs><path d="M 0,600 L 0,150 C 80.25837320574166,126.08612440191388 160.51674641148333,102.17224880382776 248,90 C 335.4832535885167,77.82775119617224 430.1913875598085,77.39712918660285 547,98 C 663.8086124401915,118.60287081339715 802.7177033492825,160.23923444976077 893,174 C 983.2822966507175,187.76076555023923 1024.9377990430621,173.64593301435406 1108,165 C 1191.0622009569379,156.35406698564594 1315.531100478469,153.17703349282297 1440,150 L 1440,600 L 0,600 Z" stroke="none" stroke-width="0" fill="url(#gradient)" fill-opacity="0.53" class="transition-all duration-300 ease-in-out delay-150 path-0"></path>
<defs><linearGradient id="gradient" x1="89%" y1="81%" x2="11%" y2="19%"><stop offset="5%" stop-color="#06aee9"></stop><stop offset="95%" stop-color="#8ED1FC"></stop></linearGradient></defs><path d="M 0,600 L 0,350 C 78.44019138755979,349.0622009569378 156.88038277511959,348.1244019138756 250,349 C 343.1196172248804,349.8755980861244 450.91866028708125,352.5645933014354 565,350 C 679.0813397129187,347.4354066985646 799.444976076555,339.61722488038276 890,330 C 980.555023923445,320.38277511961724 1041.3014354066986,308.9665071770335 1128,312 C 1214.6985645933014,315.0334928229665 1327.3492822966507,332.51674641148327 1440,350 L 1440,600 L 0,600 Z" stroke="none" stroke-width="0" fill="url(#gradient)" fill-opacity="1" class="transition-all duration-300 ease-in-out delay-150 path-1"></path></svg>